<?xml version="1.0" encoding="utf-8"?>
<!-- Generator: Adobe Illustrator 16.0.0, SVG Export Plug-In . SVG Version: 6.00 Build 0)  -->
<!DOCTYPE svg PUBLIC "-//W3C//DTD SVG 1.1//EN" "http://www.w3.org/Graphics/SVG/1.1/DTD/svg11.dtd">
<svg version="1.1" id="Layer_1" xmlns="http://www.w3.org/2000/svg" xmlns:xlink="http://www.w3.org/1999/xlink" x="0px" y="0px"
	 width="512px" height="469.078px" viewBox="0 0 512 469.078" enable-background="new 0 0 512 469.078" xml:space="preserve">
<g>
	<defs>
		<rect id="SVGID_1_" width="512" height="469.078"/>
	</defs>
	<clipPath id="SVGID_2_">
		<use xlink:href="#SVGID_1_"  overflow="visible"/>
	</clipPath>
	<path clip-path="url(#SVGID_2_)" fill="#FFFFFF" d="M506.552,296.472c-9.739-14.312-29.351-18.1-43.707-8.451l-65.34,43.728
		l-0.189-136.11l22.699,21.265c4.827,4.521,11.121,7.009,17.729,7.009h0.039c7.134-0.01,14.021-3,18.897-8.205
		c4.737-5.057,7.223-11.655,6.996-18.581c-0.226-6.926-3.136-13.349-8.192-18.086l-43.035-40.314
		c-2.946-2.76-7.571-2.609-10.33,0.337c-2.759,2.946-2.608,7.57,0.337,10.33l43.035,40.314c2.208,2.068,3.478,4.872,3.577,7.895
		c0.098,3.023-0.986,5.904-3.056,8.111c-2.16,2.306-5.09,3.578-8.252,3.582h-0.017c-2.883,0-5.63-1.086-7.737-3.06l-0.001-0.001
		L259.124,46.155c-2.816-2.637-7.198-2.633-10.007,0.014L78.679,206.727c-0.001,0.001,0.001-0.001,0,0
		c-2.201,2.074-5.079,3.16-8.103,3.076c-3.024-0.09-5.831-1.353-7.905-3.556c-2.074-2.201-3.167-5.079-3.076-8.102
		c0.09-3.024,1.353-5.831,3.554-7.905L246.326,17.682c4.342-4.091,11.154-4.101,15.507-0.021L369,118.053
		c2.945,2.759,7.57,2.609,10.33-0.337c2.759-2.946,2.607-7.57-0.337-10.33L271.827,6.994c-9.974-9.344-25.576-9.323-35.523,0.049
		l-58.639,55.24l-0.016-9.853c-0.004-3.106-1.218-6.024-3.417-8.216c-2.195-2.189-5.109-3.394-8.209-3.394h-0.017l-41.947,0.059
		c-3.106,0.004-6.023,1.218-8.216,3.417c-2.192,2.199-3.398,5.12-3.393,8.227l0.116,71.087l-59.439,55.993
		c-5.044,4.751-7.935,11.182-8.142,18.108c-0.207,6.926,2.296,13.518,7.047,18.56c4.75,5.044,11.181,7.936,18.108,8.143
		c0.265,0.008,0.53,0.012,0.795,0.012c6.635,0,12.918-2.49,17.767-7.06l22.649-21.336l0.09,64.291
		c-7.328-1.067-14.742-1.627-22.19-1.627H76.746v-4.382c0-14.711-11.969-26.68-26.68-26.68H26.68C11.969,227.631,0,239.6,0,254.312
		v114.518c0,4.036,3.272,7.308,7.308,7.308c4.036,0,7.308-3.271,7.308-7.308V254.312c0-6.652,5.412-12.064,12.064-12.064h23.385
		c6.652,0,12.064,5.412,12.064,12.064v11.689v149.796v11.575c0,6.652-5.412,12.064-12.064,12.064H26.68
		c-6.652,0-12.064-5.412-12.064-12.064v-12.788c0-4.036-3.272-7.308-7.308-7.308c-4.036,0-7.308,3.271-7.308,7.308v12.788
		c0,14.711,11.969,26.68,26.68,26.68h23.385c14.711,0,26.68-11.968,26.68-26.68v-0.993l107.024,40.528
		c0.198,0.075,0.399,0.141,0.603,0.198c4.653,1.313,9.304,1.973,13.896,1.973c2.484,0,4.951-0.193,7.393-0.579l157.281-22.672
		c0.036-0.005,0.072-0.011,0.109-0.017c13.372-2.136,25.987-7.788,36.48-16.347c0.091-0.074,0.181-0.15,0.268-0.229l101.611-91.389
		C513.244,327.341,515.453,309.554,506.552,296.472 M163.037,55.441l0.034,20.59l-35.912,33.83L127.07,55.49L163.037,55.441z
		 M126.061,263.156l-0.113-80.878L254.141,61.515l128.538,120.412l0.224,159.593l-20.691,13.848l-21.911-1.229l-0.579-5.819
		c-2.039-20.498-17.171-36.987-37.18-40.922l-0.132-94.945c-0.01-7.286-5.942-13.207-13.228-13.207h-0.018l-69.654,0.098
		c-3.533,0.005-6.853,1.385-9.347,3.887c-2.495,2.501-3.866,5.825-3.861,9.357l0.116,82.781
		c-13.797-3.154-26.971-8.363-39.288-15.568c-1.537-0.898-3.089-1.767-4.654-2.61c-0.61-0.329-1.23-0.639-1.845-0.959
		c-0.952-0.497-1.902-0.997-2.864-1.475c-0.766-0.38-1.541-0.739-2.313-1.106c-0.819-0.39-1.637-0.782-2.462-1.157
		c-0.84-0.381-1.687-0.744-2.533-1.11c-0.773-0.334-1.546-0.67-2.324-0.99c-0.87-0.359-1.745-0.704-2.621-1.048
		c-0.777-0.304-1.555-0.605-2.336-0.897c-0.867-0.324-1.738-0.637-2.611-0.944c-0.819-0.289-1.639-0.571-2.463-0.846
		c-0.836-0.279-1.674-0.552-2.516-0.817c-0.897-0.283-1.798-0.553-2.7-0.819c-0.775-0.229-1.549-0.456-2.328-0.673
		c-1.017-0.282-2.039-0.548-3.062-0.81C127.019,263.414,126.543,263.275,126.061,263.156 M220.921,213.957l66.874-0.094
		l0.128,91.705l-61.125-7.037l-5.759-0.663L220.921,213.957z M491.673,326.949l-101.511,91.298
		c-8.459,6.859-18.606,11.396-29.361,13.122l-157.213,22.662c-0.033,0.005-0.065,0.01-0.098,0.015l-0.109,0.018
		c-4.763,0.754-9.723,0.436-14.744-0.942L76.746,410.749V273.31h12.505c10.645,0,21.218,1.229,31.514,3.615
		c0.383,0.089,0.765,0.181,1.147,0.272c1.265,0.305,2.527,0.619,3.783,0.959c0.11,0.03,0.219,0.062,0.329,0.092
		c1.259,0.344,2.513,0.707,3.763,1.086c0.224,0.068,0.449,0.135,0.672,0.204c1.33,0.411,2.654,0.84,3.971,1.29
		c0.136,0.047,0.271,0.095,0.407,0.142c2.743,0.947,5.459,1.98,8.141,3.099c0.146,0.061,0.292,0.122,0.438,0.184
		c1.337,0.563,2.666,1.144,3.986,1.747c0.035,0.017,0.071,0.033,0.106,0.05c1.276,0.586,2.543,1.194,3.802,1.819
		c0.148,0.073,0.297,0.145,0.445,0.219c1.23,0.615,2.45,1.252,3.663,1.904c0.229,0.123,0.457,0.249,0.686,0.373
		c1.224,0.667,2.441,1.347,3.646,2.052c17.391,10.173,36.323,16.762,56.271,19.585c0.063,0.009,0.125,0.018,0.188,0.024
		l81.881,9.427c0.453,0.065,0.903,0.14,1.351,0.224c12.054,2.265,21.567,11.171,24.751,22.771c0.472,1.718,0.804,3.496,0.985,5.318
		l0.325,3.271l-153.46-13.445c-4.018-0.351-7.566,2.622-7.918,6.643c-0.353,4.021,2.622,7.565,6.642,7.918l162.242,14.215
		c0.039,0.003,0.077,0.002,0.115,0.005s0.075,0.009,0.114,0.012l30.597,1.718c0.137,0.008,0.273,0.011,0.409,0.011
		c0.145,0,0.288-0.023,0.432-0.032c0.163-0.01,0.326-0.016,0.488-0.036c0.218-0.028,0.431-0.075,0.645-0.122
		c0.153-0.034,0.308-0.059,0.457-0.103c0.234-0.067,0.459-0.158,0.687-0.249c0.122-0.049,0.248-0.086,0.368-0.143
		c0.341-0.157,0.673-0.34,0.988-0.552l25.973-17.381l0.003-0.003l76.702-51.332c7.717-5.188,18.251-3.152,23.481,4.536
		C499.249,311.72,498.062,321.275,491.673,326.949"/>
</g>
</svg>
