<?xml version="1.0" encoding="utf-8"?>
<!-- Generator: Adobe Illustrator 16.0.0, SVG Export Plug-In . SVG Version: 6.00 Build 0)  -->
<!DOCTYPE svg PUBLIC "-//W3C//DTD SVG 1.1//EN" "http://www.w3.org/Graphics/SVG/1.1/DTD/svg11.dtd">
<svg version="1.1" id="Layer_1" xmlns="http://www.w3.org/2000/svg" xmlns:xlink="http://www.w3.org/1999/xlink" x="0px" y="0px"
	 width="511.999px" height="473.771px" viewBox="0 0 511.999 473.771" enable-background="new 0 0 511.999 473.771"
	 xml:space="preserve">
<g>
	<defs>
		<rect id="SVGID_1_" width="511.999" height="473.771"/>
	</defs>
	<clipPath id="SVGID_2_">
		<use xlink:href="#SVGID_1_"  overflow="visible"/>
	</clipPath>
	<path clip-path="url(#SVGID_2_)" fill="#FFFFFF" d="M214.685,383.713c-24.829,0-45.029,20.201-45.029,45.028
		c0,24.829,20.2,45.029,45.029,45.029s45.029-20.2,45.029-45.029C259.714,403.915,239.514,383.713,214.685,383.713 M214.685,448.628
		c-10.966,0-19.887-8.922-19.887-19.888s8.921-19.887,19.887-19.887s19.887,8.921,19.887,19.887
		C234.572,439.708,225.65,448.628,214.685,448.628"/>
	<path clip-path="url(#SVGID_2_)" fill="#FFFFFF" d="M372.63,383.713c-24.829,0-45.029,20.201-45.029,45.028
		c0,24.829,20.2,45.029,45.029,45.029s45.028-20.2,45.028-45.029C417.658,403.915,397.459,383.713,372.63,383.713 M372.63,448.628
		c-10.966,0-19.888-8.922-19.888-19.888s8.922-19.887,19.888-19.887s19.887,8.921,19.887,19.887
		C392.517,439.708,383.596,448.628,372.63,448.628"/>
	<path clip-path="url(#SVGID_2_)" fill="#FFFFFF" d="M203.567,171.782h180.149c6.943,0,12.571-5.628,12.571-12.571
		s-5.628-12.571-12.571-12.571H203.567c-6.943,0-12.571,5.628-12.571,12.571S196.625,171.782,203.567,171.782"/>
	<path clip-path="url(#SVGID_2_)" fill="#FFFFFF" d="M373.91,211.92H213.374c-6.943,0-12.571,5.628-12.571,12.571
		c0,6.943,5.628,12.571,12.571,12.571H373.91c6.943,0,12.571-5.628,12.571-12.571C386.481,217.549,380.854,211.92,373.91,211.92"/>
	<path clip-path="url(#SVGID_2_)" fill="#FFFFFF" d="M506.34,90.63c-4.794-5.885-11.897-9.259-19.487-9.259H95.278L87.37,42.982
		c-1.651-8.007-7.113-14.731-14.614-17.989L17.579,1.044C11.209-1.723,3.806,1.199,1.043,7.568
		C-1.722,13.937,1.2,21.342,7.567,24.105l55.178,23.951l60.826,295.261c2.396,11.628,12.752,20.068,24.625,20.068h301.166
		c6.942,0,12.57-5.628,12.57-12.571s-5.628-12.57-12.57-12.57H148.197l-7.399-35.917H451.69c11.872,0,22.229-8.439,24.624-20.067
		l35.163-170.675C513.008,104.152,511.136,96.513,506.34,90.63 M451.69,277.187H135.619l-35.161-170.674l386.395,0.001
		L451.69,277.187z"/>
</g>
</svg>
