<?xml version="1.0" encoding="utf-8"?>
<!-- Generator: Adobe Illustrator 16.0.0, SVG Export Plug-In . SVG Version: 6.00 Build 0)  -->
<!DOCTYPE svg PUBLIC "-//W3C//DTD SVG 1.1//EN" "http://www.w3.org/Graphics/SVG/1.1/DTD/svg11.dtd">
<svg version="1.1" id="Layer_1" xmlns="http://www.w3.org/2000/svg" xmlns:xlink="http://www.w3.org/1999/xlink" x="0px" y="0px"
	 width="290.133px" height="512px" viewBox="0 0 290.133 512" enable-background="new 0 0 290.133 512" xml:space="preserve">
<g>
	<defs>
		<rect id="SVGID_1_" width="290.133" height="512"/>
	</defs>
	<clipPath id="SVGID_2_">
		<use xlink:href="#SVGID_1_"  overflow="visible"/>
	</clipPath>
	<path clip-path="url(#SVGID_2_)" fill="#FCFCFC" d="M187.733,42.667H102.4c-4.711,0-8.534-3.823-8.534-8.533
		c0-4.711,3.823-8.534,8.534-8.534h85.333c4.71,0,8.533,3.823,8.533,8.534C196.267,38.844,192.443,42.667,187.733,42.667"/>
	<path clip-path="url(#SVGID_2_)" fill="#FCFCFC" d="M247.467,42.667h-8.533c-4.711,0-8.534-3.823-8.534-8.533
		c0-4.711,3.823-8.534,8.534-8.534h8.533c4.71,0,8.533,3.823,8.533,8.534C256,38.844,252.177,42.667,247.467,42.667"/>
	<path clip-path="url(#SVGID_2_)" fill="#FCFCFC" d="M155.657,486.399h-21.189c-12.97,0-23.534-10.555-23.534-23.535v-4.12
		c0-12.979,10.564-23.545,23.543-23.545h21.188c12.971,0,23.535,10.565,23.535,23.545v4.12
		C179.2,475.845,168.636,486.399,155.657,486.399 M134.477,452.267c-3.575,0-6.477,2.901-6.477,6.478v4.12
		c0,3.567,2.902,6.47,6.477,6.47h21.188c3.566,0,6.469-2.902,6.469-6.47v-4.12c0-3.576-2.902-6.478-6.477-6.478H134.477z"/>
	<path clip-path="url(#SVGID_2_)" fill="#FCFCFC" d="M259.285,512H30.848C13.841,512,0,498.159,0,481.151V30.848
		C0,13.841,13.841,0,30.848,0h228.446c16.998,0,30.839,13.841,30.839,30.848v450.313C290.133,498.159,276.292,512,259.285,512
		 M30.848,17.067c-7.603,0-13.781,6.187-13.781,13.781v450.313c0,7.586,6.178,13.772,13.781,13.772h228.446
		c7.595,0,13.773-6.187,13.773-13.782V30.848c0-7.594-6.179-13.781-13.782-13.781H30.848z"/>
	<path clip-path="url(#SVGID_2_)" fill="#FCFCFC" d="M281.6,426.667H8.533c-4.71,0-8.533-3.823-8.533-8.534v-358.4
		c0-4.71,3.823-8.533,8.533-8.533H281.6c4.71,0,8.533,3.823,8.533,8.533v358.4C290.133,422.844,286.31,426.667,281.6,426.667
		 M17.067,409.6h256V68.267h-256V409.6z"/>
</g>
</svg>
